<?xml version="1.0" encoding="utf-8" ?><svg xmlns="http://www.w3.org/2000/svg" xmlns:xlink="http://www.w3.org/1999/xlink" width="1024" height="1024" viewBox="0 0 1024 1024"><path fill="white" d="M0 0L1024 0L1024 1024L0 1024L0 0Z"/><path fill="#331FE0" d="M533.372 273.486C528.901 268.874 523.503 265.261 517.534 262.887C505.996 258.291 491.94 258.54 480.591 263.604C464.173 271.028 452.651 286.285 450.003 304.108C448.899 311.226 449.108 320.42 449.092 327.776L449.041 355.7C448.993 378.196 446.122 399.537 422.85 410.403C413.507 414.765 401.158 414.172 391.691 410.377C381.567 406.318 374.468 398.43 370.357 388.362C368.536 383.855 367.314 379.129 366.722 374.304C364.97 359.264 366.876 340.796 366.108 325.39C365.586 314.944 366.042 300.966 367.459 290.704C368.931 279.784 371.85 269.108 376.139 258.958C390.897 224.228 421.271 198.6 455.665 184.616C520.679 158.182 589.659 190.132 615.278 254.418C626.949 277.763 624.607 285.923 624.563 311.509L624.504 365.016C621.854 360.858 619.09 356.303 615.943 352.533C599.131 332.393 572.236 322.268 546.412 321.432C546.598 301.82 547.234 289.32 533.372 273.486Z"/><path fill="#F75921" d="M533.372 273.486C544.097 244.525 576.674 228.645 604.199 245.374C608.648 248.078 611.517 250.813 615.278 254.418C626.949 277.763 624.607 285.923 624.563 311.509L624.504 365.016C621.854 360.858 619.09 356.303 615.943 352.533C599.131 332.393 572.236 322.268 546.412 321.432C546.598 301.82 547.234 289.32 533.372 273.486Z"/><path fill="#331FE0" d="M463.456 491.306C468.64 495.44 473.408 498.737 479.859 500.667C498.738 506.315 520.781 500.38 533.151 484.747C545.651 468.952 545.053 453.254 544.745 434.36C544.591 425.821 544.516 417.281 544.521 408.74C544.499 390.453 544.562 379.896 559.083 366.118C583.321 343.122 623.696 360.563 626.22 392.941C627.18 405.243 626.436 418.721 626.781 431.121C626.719 443.833 627.318 460.059 626.115 472.555C623.518 497.175 613.788 520.501 598.121 539.67C575.969 566.553 543.957 583.424 509.259 586.502C474.058 589.756 441.768 579.564 414.573 556.965C399.012 544.034 385.494 527.408 378.194 508.398C366.706 487.645 366.951 466.55 367.02 443.821C367.115 428.749 367.123 413.676 367.044 398.604C383.944 427.881 413.272 440.803 445.647 445.135C445.091 465.535 448.153 476.738 463.456 491.306Z"/><path fill="#F75921" d="M367.044 398.604C383.944 427.881 413.272 440.803 445.647 445.135C445.091 465.535 448.153 476.738 463.456 491.306C454.155 521.558 419.256 537.874 391.305 520.487C386.158 517.286 382.672 512.148 378.194 508.398C366.706 487.645 366.951 466.55 367.02 443.821C367.115 428.749 367.123 413.676 367.044 398.604Z"/><path fill="#331FE0" d="M512.564 71.975C634.503 77.7381 726.113 175.987 720.012 299.009C719.419 310.957 715.49 321.697 706.47 329.898C698.277 337.288 687.474 341.101 676.458 340.493C665.47 339.933 655.158 335.02 647.8 326.839C636.291 314.094 637.022 300.492 637.265 284.228C638.205 221.286 588.396 165.521 526.117 158.108C518.577 157.211 510.222 156.907 502.808 155.418C498.816 153.516 495.467 152.405 491.502 150.159C462.182 133.553 464.6 90.3587 495.337 76.829C501.677 74.0381 506.124 73.5665 512.564 71.975Z"/><path fill="#F75921" d="M510.441 605.763C548.321 603.395 579.825 587.907 605.062 559.516C620.486 542.092 631.271 521.065 636.423 498.373C641.599 475.061 633.613 449.383 654.421 432.488C681.508 410.495 719.928 427.668 720.785 462.969C725.193 576.04 631.773 683.249 517.518 687.88C513.649 688.037 508.436 688.28 504.569 687.949C503.012 686.94 499.963 686.033 497.971 684.961C490.37 680.959 484.181 674.719 480.242 667.084C469.116 645.905 478.037 617.678 500.307 609.634C503.345 608.537 507.885 607.278 510.441 605.763Z"/><path fill="#331FE0" d="M504.569 687.949C496.881 688.235 488.902 687.232 481.183 687.037C372.322 684.29 282.121 592.391 273.334 485.273C271.59 464.004 272.232 444.926 290.496 431.054C310.698 415.709 341.22 422.355 351.149 446.216C355.017 455.512 354.531 464.249 354.903 474.061C355.87 511.648 373.808 545.435 401.653 570.093C433.066 598.238 469.113 607.908 510.441 605.763C507.885 607.278 503.345 608.537 500.307 609.634C478.037 617.678 469.116 645.905 480.242 667.084C484.181 674.719 490.37 680.959 497.971 684.961C499.963 686.033 503.012 686.94 504.569 687.949Z"/><path fill="#F75921" d="M502.808 155.418C495.776 155.83 488.344 155.144 481 155.741C457.28 157.669 433.001 166.916 413.937 181.255C384.756 203.204 363.347 234.884 357.318 271.252C354.821 281.654 356.081 292.736 354.376 303.11C350.513 326.611 329.09 342.107 306.175 338.23C295.611 336.344 286.258 330.265 280.245 321.377C269.217 305.391 273.107 276.832 276.395 258.342C286.863 199.514 320.039 147.16 368.765 112.575C403.414 87.9137 444.428 73.744 486.911 71.7568C492.464 71.4684 507.403 71.0579 512.564 71.975C506.124 73.5665 501.677 74.0381 495.337 76.829C464.6 90.3587 462.182 133.553 491.502 150.159C495.467 152.405 498.816 153.516 502.808 155.418Z"/><path fill="#0E0E0E" d="M376.608 725.7C377.293 725.646 377.976 725.572 378.655 725.476C390.16 723.909 406.404 716.27 413.674 706.868C413.643 723.603 413.871 740.338 414.358 757.066C405.256 763.899 402.177 774.002 399.871 784.672C400.491 784.186 400.634 784.055 400.876 783.272C404.585 771.277 412.665 758.053 425.753 755.054C428.387 754.45 430.66 754.476 433.26 754.502C440.186 754.547 446.108 756.644 451.068 761.452C469.701 779.51 453.224 812.69 464.78 832.931C466.242 835.492 470.54 837.796 473.211 839.286C455.97 839.135 438.729 839.117 421.488 839.231L421.573 794.203C421.589 790.334 423.845 771.767 418.699 772.023C412.822 776.501 414.059 796.66 414.049 803.635L414.019 839.314C402.77 839.296 389.596 839.558 378.527 839.04C376.248 837.357 374.577 835.963 372.441 834.126C378.182 824.662 376.534 800.211 376.538 788.368L376.608 725.7Z"/><path fill="#331FE0" d="M399.871 784.672C400.491 784.186 400.634 784.055 400.876 783.272C404.585 771.277 412.665 758.053 425.753 755.054C428.387 754.45 430.66 754.476 433.26 754.502L432.826 754.75C429.8 756.465 426.147 757.469 423.311 759.702C408.51 771.357 403.876 784.73 399.198 801.974C396.934 801.477 399.771 795.681 398.508 791.814C398.52 789.651 399.131 786.671 399.871 784.672Z"/><path fill="#25199F" d="M399.198 801.974C399.047 802.928 398.818 804.394 397.638 804.567C396.561 803.47 398.055 793.62 398.508 791.814C399.771 795.681 396.934 801.477 399.198 801.974Z"/><path fill="#0E0E0E" d="M721.483 726.242C736.037 723.368 749.064 718.155 758.616 706.398L758.443 758.111C751.343 765.41 746.589 775.762 744.94 785.759C746.966 783.239 749.119 774.229 752.585 769.801C759.643 760.782 764.217 754.971 776.844 755.011C798.304 754.818 805.284 770.87 805.417 789.499C805.408 795.58 805.368 801.661 805.297 807.742C805.195 820.593 803.593 831.389 816.184 839.13C799.645 839.415 782.902 839.091 766.296 839.25L766.409 797.323C766.417 792.76 767.38 776.172 764.654 772.979C760.906 772.507 758.936 779.398 758.842 782.21C758.211 801.132 758.937 820.349 758.583 839.257L710.44 839.22C719.146 832.697 721.242 826.074 721.43 815.592C721.589 806.76 721.491 797.911 721.477 789.082L721.483 726.242Z"/><path fill="#331FE0" d="M744.94 785.759C746.966 783.239 749.119 774.229 752.585 769.801C759.643 760.782 764.217 754.971 776.844 755.011C773.986 757.147 770.243 758.313 766.91 760.632C752.946 770.349 748.881 785.073 743.93 800.424C742.995 798.855 743.306 797.284 742.966 795.3C743.137 793.367 744.129 787.512 744.94 785.759Z"/><path fill="#25199F" d="M742.061 807.52C742.127 803.725 742.138 799.003 742.966 795.3C743.306 797.284 742.995 798.855 743.93 800.424C743.825 802.872 742.856 805.21 742.061 807.52Z"/><path fill="#0E0E0E" d="M236.784 753.767L273.559 753.651L273.472 782.836C273.436 799.453 272.006 823.448 284.801 836.239C285.605 837.057 286.457 837.826 287.352 838.542C278.124 838.65 267.917 839.171 258.747 838.521C236.983 836.978 243.398 817.398 246.269 802.737L245.146 802.182C242.205 814.534 239.331 829.971 227.279 836.971C216.636 843.152 199.907 834.916 194.47 824.63C189.529 815.281 191.048 806.404 190.869 796.208C190.717 787.573 191.535 777.803 189.325 769.35C187.899 763.9 183.695 758.675 181.13 753.688L229.326 753.791C229.329 764.292 228.172 812.579 230.153 817.821L230.998 818.448C239.173 814.975 236.477 763.466 236.784 753.767Z"/><path fill="#6B331E" d="M246.26 796.226C246.44 794.153 248.376 784.113 249.168 781.869L249.226 781.836C249.128 782.111 249.131 782.153 249.301 782.494L249.266 783.514C249.216 786.614 247.9 793.976 247.338 797.338L246.26 796.226Z"/><path fill="#EB9E80" d="M246.26 796.226L247.338 797.338C246.672 799.734 246.694 800.392 246.269 802.737L245.146 802.182C245.397 800.021 245.838 798.325 246.26 796.226Z"/><path fill="#F75921" d="M378.527 839.04C363.85 838.783 346.925 841.986 336.098 829.944C326.446 819.209 330.313 802.701 329.828 789.478C329.652 784.685 331.74 777.282 335.472 774.263C338.932 771.279 341.81 772.679 345.792 772.905C344.343 769.808 335.323 768.3 332.006 768.896C313.275 772.261 330.442 838.557 317.504 838.702C286.546 839.047 273.604 799.097 290.623 775.239C296.28 767.268 304.872 761.871 314.508 760.233C329.064 757.839 341.63 763.49 352.199 773.221C353.922 774.808 358.327 780.117 359.736 780.818C361.732 783.388 362.85 786.958 363.767 790.051C364.374 792.658 364.927 795.441 365.486 798.08C365.623 809.357 364.134 826.014 372.441 834.126C374.577 835.963 376.248 837.357 378.527 839.04Z"/><path fill="#0E0E0E" d="M537.175 755.056C548.823 754.758 561.88 754.402 573.503 754.993C589.904 755.828 581.567 769.234 578.845 778.792C580.275 777.669 582.533 771.622 584.016 769.362C589.972 760.283 595.148 754.906 606.603 755.018C598.126 760.653 595.81 760.624 589.888 770.769L590.391 771.595C588.41 778.92 589.027 793.446 589.038 801.412C589.053 812.256 587.939 829.123 591.845 839.057C582.022 839.046 561.733 839.571 553.001 838.657C550.676 836.891 547.368 834.843 546.601 832.061C554.052 818.949 551.068 799.81 551.246 784.697C551.388 772.601 546.17 763.1 537.175 755.056Z"/><path fill="#331FE0" d="M578.845 778.792C580.275 777.669 582.533 771.622 584.016 769.362C589.972 760.283 595.148 754.906 606.603 755.018C598.126 760.653 595.81 760.624 589.888 770.769C586.173 774.781 581.969 783.384 579.921 788.579C578.308 787.998 577.486 787.92 576.641 786.572C577.214 783.967 577.824 781.243 578.845 778.792Z"/><path fill="#25199F" d="M575.768 793.598C575.972 791.333 576.076 788.762 576.641 786.572C577.486 787.92 578.308 787.998 579.921 788.579C578.967 791.148 578.298 792.854 577.588 795.555C576.351 794.848 576.268 794.849 575.768 793.598Z"/><path fill="#1C157C" d="M574.884 803.796C574.958 801.667 575.189 795.494 575.768 793.598C576.268 794.849 576.351 794.848 577.588 795.555C577.382 798.186 575.896 801.361 574.884 803.796Z"/><path fill="#0E0E0E" d="M805.383 754.901C821.198 754.576 837.914 754.895 853.794 754.948C853.973 775.101 853.025 796.094 853.891 816.253C853.939 817.38 856.452 818.612 857.412 819.159C854.806 828.218 850.062 833.998 842.255 839.156C802.78 837.605 819.469 796.25 813.689 771.522C812.155 764.961 809.17 760.404 805.383 754.901Z"/><path fill="#F75921" d="M606.603 755.018C614.058 754.903 619.148 756.981 624.561 762.203C644.513 781.451 623.991 814.719 642.192 834.489C643.526 835.937 645.903 837.738 647.489 839.034C634.038 839.005 618.844 839.217 605.416 837.982C600.604 837.333 596.457 833.042 596.102 828.277C595.11 814.936 596.064 801.418 595.673 788.043C595.53 783.148 597.48 773.159 592.261 771.101L590.391 771.595L589.888 770.769C595.81 760.624 598.126 760.653 606.603 755.018Z"/><path fill="#F75921" d="M861.381 755.007C870.012 755.054 876.172 754.886 883.851 759.426C898.235 767.93 898.612 778.969 898.583 793.269L898.536 811.168C898.511 825.266 898.793 831.526 911.976 839.027C891.391 837.295 860.269 846.274 870.298 811.884L869.168 811.564C865.04 823.499 855.971 837.559 842.255 839.156C850.062 833.998 854.806 828.218 857.412 819.159C862.196 808.069 860.951 792.364 861.012 780.023C861.078 771.684 861.201 763.345 861.381 755.007Z"/><path fill="#EB9E80" d="M869.168 811.564L869.328 810.869C869.486 810.096 871.322 802.576 871.68 802.455C872.754 803.441 870.68 810.474 870.298 811.884L869.168 811.564Z"/><path fill="#0E0E0E" d="M127.389 757.474L127.734 757.848C126.633 762.295 124.484 767.508 128.248 771.41C143.583 787.308 188.411 788.844 180.498 819.32C178.528 826.91 172.3 833.075 165.181 836.757C164.746 836.799 165.044 836.802 164.325 836.5C166.64 830.393 167.417 824.956 161.254 820.49C148.066 810.655 124.514 807.171 115.107 793.197C106.367 780.213 115.474 764.341 127.389 757.474Z"/><path fill="#331FE0" d="M661.728 756.96L662.198 757.294C653.957 771.54 667.162 775.942 677.865 781.429C694.579 789.998 721.244 795.488 713.519 820.897C711.156 828.669 706.046 832.793 699.171 836.255L698.44 836.323L698.103 835.828C705.201 821.455 688.978 817.534 678.612 811.979C664.074 804.188 640.991 797.791 646.247 775.942C648.385 767.055 654.139 761.298 661.728 756.96Z"/><path fill="#0E0E0E" d="M329.054 726.164C342.012 723.171 356.626 717.872 365.515 707.498C365.922 733.932 366.04 760.369 365.87 786.805C366.118 791.082 365.757 793.972 365.486 798.08C364.927 795.441 364.374 792.658 363.767 790.051C362.85 786.958 361.732 783.388 359.736 780.818C354.215 771.068 342.338 762.793 331.554 759.855C330.694 759.622 329.831 759.4 328.965 759.189L329.054 726.164Z"/><path fill="#01070B" d="M363.767 790.051C364.093 790.147 364.464 790.271 364.76 790.382C365.239 789.503 364.495 781.221 365.16 780.697C365.561 783.349 365.084 783.991 365.87 786.805C366.118 791.082 365.757 793.972 365.486 798.08C364.927 795.441 364.374 792.658 363.767 790.051Z"/><path fill="#331FE0" d="M536.242 768.846C536.258 768.039 536.069 765.19 536.436 764.777C536.502 764.772 536.568 764.767 536.634 764.762C537.316 765.199 538.551 768.482 538.869 769.295C541.125 775.948 541.077 777.346 541.839 783.963C543.239 796.119 539.241 822.675 546.601 832.061C547.368 834.843 550.676 836.891 553.001 838.657C535.816 840.236 514.982 838.852 509.09 819.48C507.541 814.387 506.728 806.69 507.781 801.567C511.7 782.501 532.394 790.755 536.127 769.53L536.242 768.846Z"/><path fill="#331FE0" d="M536.242 768.846C536.258 768.039 536.069 765.19 536.436 764.777C536.502 764.772 536.568 764.767 536.634 764.762C537.316 765.199 538.551 768.482 538.869 769.295C537.701 769.266 537.262 769.4 536.242 768.846Z"/><path fill="#0E0E0E" d="M529.344 775.564L529.678 776.013C526.065 782.147 518.174 782.564 512.617 785.987C503.535 791.582 501.233 803.576 502.972 813.41C503.932 818.841 506.102 822.703 509.078 827.228C497.168 836.582 489.633 842.708 474.082 836.207C472.189 835.168 468.377 832.261 467.392 830.404C448.687 795.146 509.606 788.722 528.736 775.973L529.344 775.564Z"/><path fill="#331FE0" d="M504.854 752.683C513.788 751.597 535.764 756.181 528.315 769.446C523.681 777.698 505.618 782.08 496.242 784.388C485.825 785.808 464.088 787.237 475.771 767.989C480.876 759.578 495.146 754.12 504.854 752.683Z"/><path fill="#331FE0" d="M658.538 807.58C666.335 812.12 674.628 815.599 682.819 819.384C687.078 821.352 694.551 825.255 694.418 830.822C694.205 839.723 683.789 841.413 676.718 841.522C662.795 841.572 652.018 837.325 640.368 830.309C646.82 822.601 651.367 815.542 658.538 807.58Z"/><path fill="#0E0E0E" d="M124.837 807.862C129.242 810.405 133.735 812.795 138.306 815.028C143.745 817.63 160.205 823.357 160.418 830.118C160.721 839.728 151.18 841.438 143.524 841.647C130.729 841.364 116.907 838.298 106.627 830.291C112.796 822.953 118.534 815.22 124.837 807.862Z"/><path fill="#0E0E0E" d="M145.032 751.618C160.309 750.726 170.703 752.894 183.243 761.669C179.08 767.305 172.522 776.018 168.102 781.209C167.166 782.451 166.196 783.663 165.3 784.935C158.711 782.329 134.045 773.225 132.062 765.252C130.171 757.649 137.964 753.053 145.032 751.618Z"/><path fill="#331FE0" d="M681.746 751.171C693.588 750.584 707.97 754.253 717.049 762.157C710.979 769.02 705.091 776.042 699.391 783.216C698.95 783.738 698.373 784.606 697.68 784.832C696.787 785.122 674.637 774.095 672.314 772.583C669.461 770.724 666.591 768.295 665.944 764.766C665.516 762.432 665.545 760.232 667.023 758.268C670.863 753.165 675.764 751.862 681.746 751.171Z"/></svg>