<?xml version="1.0" encoding="utf-8" ?><svg xmlns="http://www.w3.org/2000/svg" xmlns:xlink="http://www.w3.org/1999/xlink" width="1024" height="1024" viewBox="0 0 1024 1024"><path fill="#0C0E23" d="M0 0L1024 0L1024 1024L0 1024L0 0Z"/><path fill="#4462F3" d="M531.748 338.031L572.989 337.972C590.931 337.956 605.159 336.97 622.093 344.104C635.343 349.686 644.115 355.071 654.318 365.265C669.513 380.262 678.98 400.106 681.075 421.353C682.047 431.356 681.65 446.423 681.672 456.798C665.372 457.259 647.89 456.932 631.5 456.863C636.85 435.029 638.28 416.22 620.423 399.078C606.19 385.414 594.567 385.799 576.051 386.118L576.173 480.807C587.177 487.585 601.824 498.157 612.827 505.562C635.819 520.752 658.718 536.081 681.524 551.548C681.6 594.627 686.188 626.25 652.557 660.207C637.577 674.825 617.921 683.691 597.048 685.243C589.765 685.845 579.816 685.577 572.371 685.581L531.998 685.575L531.515 558.284C544.721 566.331 563.534 579.499 576.502 588.428C576.076 604.743 576.02 621.065 576.333 637.382L580.075 637.367C597.583 637.251 609.21 636.009 622.515 622.73C636.62 608.652 635.23 592.036 635.001 573.788C601.668 550.394 565.803 527.593 531.9 504.6C531.443 486.117 531.894 465.516 531.895 446.836L531.748 338.031Z"/><path fill="#4462F3" d="M430.755 338.214C450.918 337.784 471.741 338.024 491.952 338.01L491.908 465.208C477.277 455.222 462.398 445.476 447.893 435.36C447.021 420.851 447.685 400.583 447.773 385.618C430.32 385.703 416.738 385.989 403.238 399.207C387.782 414.341 389.467 429.583 389.239 448.961C416.936 468.715 445.595 487.293 473.81 506.315C479.767 510.331 486.361 514.234 491.916 518.764L491.931 685.615L454.458 685.672C438.799 685.689 427.243 686.65 411.909 682.806C395.968 678.635 381.439 670.258 369.843 658.551C341.905 630.251 342.941 602.498 343.006 566.308L391.972 566.365C386.754 586.503 387.341 608.484 403.119 623.716C417.068 637.183 429.365 637.917 447.689 637.786L447.566 541.587C412.426 518.629 377.573 495.235 343.014 471.411C342.701 457.581 342.954 443.582 343.045 429.742C343.37 380.274 381.27 340.202 430.755 338.214Z"/><path fill="#4462F3" d="M345.691 256.204C353.062 254.913 368.093 256.23 375.473 257.964C400.324 263.871 421.813 279.405 435.214 301.151C410.341 298.08 393.785 299.633 370.632 310.826C341.201 325.055 320.63 348.808 309.907 379.605C304.674 397.252 303.948 407.284 306.633 425.131C282.544 409.522 267.786 382.737 265.101 354.442C262.842 330.459 270.297 306.572 285.796 288.131C300.633 270.478 322.665 258.301 345.691 256.204Z"/><path fill="#4462F3" d="M306.946 597.95C307.18 599.465 305.846 609.896 305.632 612.153C305.181 617.321 305.213 622.52 305.727 627.681C306.247 632.594 307.405 637.179 308.858 641.931C322.294 685.862 363.873 720.079 409.679 724.313C417.867 725.069 426.696 724.209 434.834 723.328C422.771 741.645 409.468 753.067 389.193 761.511C373.722 767.384 357.181 769.674 340.744 767.177C317.37 763.396 296.42 750.578 282.413 731.489C267.803 711.41 261.893 686.294 266.015 661.807C270.298 635.335 285.321 613.456 306.946 597.95Z"/><path fill="#4462F3" d="M660.794 256.203C664.238 255.571 674.494 255.799 677.893 256.098C700.761 258.107 723.591 270.999 738.211 288.514C753.798 307.167 761.229 331.304 758.832 355.493C755.834 387.212 741.177 406.169 717.81 425.485C717.988 414.861 719.341 406.082 717.878 395.385C706.741 335.338 649.754 290.619 588.416 301.259C590.62 297.805 593.03 294.487 595.634 291.323C612.197 271.253 634.836 258.623 660.794 256.203Z"/><path fill="#4462F3" d="M716.338 597.945C728.65 604.13 743.153 623.092 749.358 635.438C760.499 657.461 762.376 683.023 754.571 706.437C746.651 729.508 729.908 748.499 708.011 759.248C684.42 770.753 660.741 770.594 636.377 762.202C614.759 753.939 602.353 741.303 588.649 723.39C602.368 725.148 615.785 724.974 629.313 721.865C682.624 709.617 729.154 654.287 716.338 597.945Z"/></svg>