<?xml version="1.0" encoding="utf-8" ?><svg xmlns="http://www.w3.org/2000/svg" xmlns:xlink="http://www.w3.org/1999/xlink" width="1024" height="1024" viewBox="0 0 1024 1024"><path d="M0 0L1024 0L1024 1024L0 1024L0 0Z"/><path fill="#FAFAFA" d="M472.435 383.827C476.235 383.996 495.593 404.628 498.185 408.856C489.879 421.738 467.713 438.665 458.563 451.367C457.678 460.779 458.121 468.541 458.529 477.954C463.142 483.73 466.927 487.056 472.412 491.884C499.699 492.794 528.021 491.415 555.398 491.929C557.762 491.973 562.505 492.092 564.777 492.916C578.252 497.803 587.712 512.14 598.103 521.666C599.602 523.04 602.591 527.18 602.909 528.949C605.566 543.481 603.883 558.856 604.123 573.499C604.415 591.353 592.547 598.205 581.391 609.898C571.297 620.478 561.003 630.661 550.414 640.783C543.053 635.108 530.787 621.842 524.36 614.75C534.993 600.46 554.739 586.567 565.885 570.755C566.274 559.86 568.122 547.189 560.075 538.955C557.863 536.692 553.292 532.9 550.236 532.468C541.033 531.026 535.154 532.457 525.601 531.964C504.903 530.894 473.521 534.703 454.258 529.852C447.503 528.151 431.406 507.935 425.365 502.879C423.762 501.538 421.107 497.11 420.741 494.905C418.875 478.606 420.208 461.639 420.032 445.205C419.776 435.702 426.569 428.845 433.237 422.774C446.633 410.58 459.037 395.918 472.435 383.827Z"/><path fill="#FAFAFA" d="M421.116 552.019C437.562 551.357 441.219 555.093 451.912 566.876C455.433 570.756 459.699 574.952 463.429 578.701L522.605 638.312C531.028 646.838 549.269 666.117 558.153 672.687C566.487 668.228 577.766 655.428 584.798 648.211C592.182 640.735 599.51 633.205 606.783 625.621C612.687 619.431 623.092 606.75 632.44 606.604C641.972 606.486 651.392 607.289 660.947 606.638C662.279 606.36 677.65 606.559 676.231 609.641C673.284 616.047 661.153 626.753 656.25 631.525L606.304 681.61C598.188 689.893 587.244 702.529 578.652 709.511C575.37 712.194 571.564 714.163 567.478 715.291C545.031 721.65 530.171 701.065 516.309 687.032L484.315 654.839C464.782 635.201 445.02 615.529 425.698 595.682C424.294 593.956 421.233 591.269 420.79 589.028C419.044 580.198 419.526 570.749 419.711 561.776C419.774 558.702 419.901 554.804 421.116 552.019Z"/><path fill="#FAFAFA" d="M462.736 307.563C482.989 306.302 494.012 321.584 506.678 334.83C514.421 342.938 522.259 350.955 530.191 358.879L572.934 402.044C581.591 410.678 590.204 418.547 598.561 427.733C607.023 435.861 604.06 448.428 604.547 459.093C605.172 469.232 602.383 473.855 591.542 471.007C580.1 468.002 571.567 456.09 563.389 448.01L508.298 392.75C494.247 379.319 481.294 364.179 466.122 351.639C458.237 354.987 451.815 363.534 445.768 369.566C433.464 381.921 421.462 394.646 408.995 406.831C401.017 414.63 395.978 415.279 385.253 415.053C377.134 414.882 368.657 415.327 360.515 414.899C357.528 414.742 352.191 414.64 350.18 412.411C350.074 408.911 364.031 396.423 366.982 393.462L407.624 352.93C414.373 346.125 421.067 339.265 427.704 332.351C439.001 320.525 446.123 311.422 462.736 307.563Z"/><path fill="#FAFAFA" d="M335.334 544.591C340.408 545.907 369.228 576.495 374.827 582.101L435.513 642.754C444.024 651.311 459.011 668.173 468.539 674.453C473.651 674.677 477.928 674.361 483.002 673.871C489.593 680.034 498.207 687.613 503.8 694.533C500.198 698.294 496.441 701.904 492.54 705.353C482.586 714.879 469.777 719.758 456.189 715.603C452.006 714.366 448.128 712.266 444.806 709.439C439.999 705.298 432.954 697.812 428.282 693.114L398.415 662.976C388.691 653.131 339.067 604.789 335.847 598.096C333.518 593.255 333.491 550.71 335.334 544.591Z"/><path fill="#FAFAFA" d="M554.162 307.587C572.875 306.274 578.067 313.501 590.343 325.965L608.148 343.865C633.548 369.284 660.173 394.724 684.314 421.302C685.079 428.249 686.691 470.391 683.177 473.513C678.848 472.759 670.583 463.315 667.244 459.841C648.072 439.824 626.163 419.01 606.445 399.189C595.778 388.361 585.006 377.637 574.13 367.018C568.22 361.333 560.885 354.12 554.351 349.41C549.477 349.46 546.288 349.539 541.481 350.11C539.049 348.261 536.486 346.107 534.416 344.116C522.008 332.182 517.254 330.151 533.326 318.129C540.997 312.391 544.416 309.867 554.162 307.587Z"/><path fill="#FAFAFA" d="M333.281 426.824C334.056 426.849 335.085 426.942 335.596 427.57C338.466 431.097 336.901 440.535 336.913 445.015C336.936 453.912 338.545 464.022 335.973 472.677C331.851 486.542 303.667 502.082 303.47 512.629C303.359 518.578 315.244 525.884 318.875 530.506C324.456 537.611 322.521 574.357 321.309 584.267C313.738 580.489 306.824 572.491 300.874 566.381C295.249 560.507 289.559 554.696 283.805 548.949C272.647 537.945 258.939 527.111 260.622 509.524C261.094 504.394 262.887 499.474 265.825 495.243C271.798 486.551 290.242 469.43 298.694 460.947C308.372 451.234 323.07 435.278 333.281 426.824Z"/><path fill="#FAFAFA" d="M702.308 438.545C704.562 439.489 707.505 441.457 709.261 443.202C721.114 454.99 732.414 467.687 744.665 479.069C754.3 488.111 762.841 496.526 762.98 510.581C763.164 529.111 748.953 539.593 736.91 551.658C727.548 561.002 718.237 570.397 708.976 579.841C704.896 584.07 694.817 595.022 690.141 597.324C689.251 597.247 689.209 597.457 688.734 596.856C685.994 593.385 686.817 559.04 688.006 553.648C688.825 549.931 690.358 547.186 692.786 544.275C697.789 538.278 721.761 518.812 721.765 512.859C721.768 507.015 706.239 493.849 702.01 489.815C701.738 480.992 701.95 471.343 701.849 462.448C701.779 456.266 701.429 444.08 702.308 438.545Z"/></svg>